<svg width="64" height="64" viewBox="0 0 64 64" fill="none" xmlns="http://www.w3.org/2000/svg">
<path d="M35.6188 23.4141C37.8993 23.4141 39.8229 24.9411 40.7321 26.9974C42.3379 30.6293 45.4598 34.8799 52.7165 38.5774C54.1917 39.3294 54.9029 41.0592 54.2483 42.5609C53.6287 43.9826 52.0214 44.6595 50.6107 43.9754C46.3001 41.8838 38.718 37.4116 38.718 33.8719V42.0881C38.718 44.8156 40.4905 50.5312 42.6489 51.0519H21.1119C23.2701 50.5309 25.0428 44.8155 25.0428 42.0881V33.8719C25.0428 37.4116 17.4607 41.8838 13.1501 43.9754C11.7393 44.6598 10.1308 43.9827 9.51108 42.5609C8.85675 41.0592 9.56903 39.3292 11.0442 38.5774C18.3008 34.88 21.4214 30.6293 23.0273 26.9974C23.9365 24.9411 25.8615 23.4141 28.142 23.4141H35.6188Z" fill="#DEFFF0"/>
<path d="M38.162 33.7401C38.162 33.3443 38.4835 33.0235 38.8801 33.0234C39.2767 33.0234 39.5983 33.3443 39.5983 33.7401C39.5983 34.4174 39.9644 35.2388 40.7218 36.177C41.4676 37.1008 42.525 38.055 43.7472 38.9835C46.1897 40.8389 49.1904 42.5206 51.3733 43.5956C52.4095 44.1052 53.6286 43.6257 54.1183 42.4856C54.6276 41.2995 54.0847 39.8897 52.8797 39.2662C45.3065 35.3497 41.9947 30.8094 40.2841 26.8827C39.4408 24.9469 37.6949 23.5906 35.7074 23.5906H28.0532C26.0657 23.5906 24.3197 24.9473 23.4765 26.8827C21.7658 30.8093 18.4541 35.3497 10.8809 39.2662C9.67554 39.8897 9.13204 41.2998 9.64094 42.4856C10.1305 43.6256 11.3509 44.1054 12.3873 43.5956L13.2429 43.1645C15.3127 42.097 17.8764 40.6068 20.0134 38.9835C21.2359 38.0548 22.2943 37.101 23.0402 36.177C23.7975 35.2389 24.1623 34.4174 24.1623 33.7401C24.1623 33.3443 24.4839 33.0235 24.8805 33.0234C25.2771 33.0234 25.5986 33.3443 25.5986 33.7401V42.2771C25.5986 43.8052 25.1198 46.087 24.3685 48.0496C23.9911 49.0355 23.5315 49.977 23.0038 50.7203C22.9668 50.7724 22.9273 50.823 22.8888 50.8743H40.8718C40.8334 50.8231 40.7938 50.7723 40.7568 50.7203C40.2292 49.9771 39.7708 49.0353 39.3935 48.0496C38.6422 46.087 38.162 43.8053 38.162 42.2771V33.7401ZM39.5983 42.2771C39.5983 43.5829 40.026 45.6881 40.7344 47.5387C41.0868 48.4591 41.4956 49.2807 41.9294 49.8916C42.3796 50.5256 42.7787 50.8226 43.0754 50.8953C43.428 50.9816 43.6601 51.3166 43.6168 51.6763C43.5732 52.0362 43.2675 52.3076 42.9043 52.3076H20.8563C20.4931 52.3075 20.1874 52.0362 20.1438 51.6763C20.1005 51.3167 20.3327 50.9817 20.6852 50.8953C20.9819 50.8226 21.381 50.5255 21.8312 49.8916C22.2651 49.2806 22.6738 48.4579 23.0262 47.5373C23.7345 45.6869 24.1623 43.5827 24.1623 42.2771V37.07C24.1609 37.0719 24.1596 37.0738 24.1581 37.0756C23.3108 38.1253 22.1526 39.1598 20.883 40.1243C18.3415 42.0548 15.2539 43.7824 13.0241 44.8806C11.1721 45.7924 9.09886 44.8653 8.31966 43.0511C7.4891 41.1165 8.40398 38.9313 10.2188 37.9925H10.2202C17.5037 34.2256 20.5821 29.9322 22.1594 26.3116C23.1777 23.9742 25.3718 22.1573 28.0532 22.1572H35.7074C38.389 22.1572 40.583 23.9743 41.6012 26.3116C43.1292 29.819 46.0658 33.9584 52.8699 37.6383L53.5418 37.9925L53.8714 38.1828C55.4643 39.2037 56.2184 41.2376 55.4395 43.0511C54.6605 44.8649 52.5898 45.7919 50.7379 44.8806H50.7365C48.5067 43.7824 45.419 42.0548 42.8776 40.1243C41.608 39.1598 40.4498 38.1253 39.6025 37.0756C39.601 37.0738 39.5997 37.0719 39.5983 37.07V42.2771Z" fill="#B994FF"/>
<path d="M34.9598 23.4141C37.2164 23.4147 39.1213 24.971 40.021 27.0666C40.8959 29.104 42.2263 31.3313 44.4421 33.5518L41.0639 38.7504C39.2851 37.1863 38.0261 35.5508 38.0261 34.0736V42.4482C38.0261 45.0319 39.542 48.054 41.4707 48.5394H21.0468C22.9752 48.0533 24.4915 45.0315 24.4915 42.4482V34.0736C24.4915 35.5547 23.2251 37.1949 21.4388 38.7628L18.0605 33.5655C20.2848 31.3404 21.6199 29.1083 22.4966 27.0666C23.3965 24.9709 25.3009 23.4143 27.5578 23.4141H34.9598Z" fill="white"/>
<path d="M37.5782 33.4566C37.5782 33.0705 37.9017 32.7575 38.3007 32.7575C38.6997 32.7575 39.0232 33.0705 39.0232 33.4566C39.0232 33.9933 39.2661 34.6284 39.7823 35.3531C40.1723 35.9005 40.6967 36.4661 41.3218 37.0393L44.0507 33.0251C41.9198 30.883 40.5991 28.7395 39.7132 26.7677C38.9179 24.9979 37.3248 23.7238 35.4814 23.5714L35.1103 23.5563H27.4088C25.4098 23.5565 23.6543 24.8799 22.8059 26.7677C21.9178 28.7443 20.5911 30.8919 18.4514 33.0388L21.1818 37.053C21.8113 36.4771 22.3397 35.9087 22.7325 35.3585C23.2516 34.6316 23.4959 33.9947 23.4959 33.4566C23.4959 33.0705 23.8194 32.7575 24.2184 32.7575C24.6174 32.7575 24.9408 33.0705 24.9408 33.4566V41.7839C24.9408 43.1945 24.5118 44.7034 23.812 45.9319C23.5667 46.3626 23.2754 46.7741 22.947 47.1416H39.5721C39.2437 46.7741 38.9523 46.3625 38.7071 45.9319C38.0074 44.7033 37.5782 43.1945 37.5782 41.7839V33.4566ZM39.0232 41.7839C39.0232 42.9423 39.3823 44.2206 39.9728 45.2574C40.5754 46.3155 41.3384 46.9887 42.0583 47.1621C42.4125 47.2473 42.6458 47.5748 42.6016 47.9254C42.5572 48.276 42.2498 48.5398 41.8848 48.5398H20.6343C20.2693 48.5398 19.9619 48.2759 19.9175 47.9254C19.8733 47.5751 20.1055 47.2475 20.4593 47.1621C21.1794 46.9887 21.9434 46.3157 22.5463 45.2574C23.1369 44.2206 23.4959 42.942 23.4959 41.7839V36.6993C22.9435 37.3637 22.2644 38.0189 21.5148 38.6477C21.3575 38.7794 21.1494 38.8391 20.9433 38.8115C20.7371 38.784 20.5526 38.6713 20.4382 38.503L16.9232 33.3351C16.7344 33.0569 16.7746 32.6885 17.0192 32.4544C19.2604 30.3117 20.5996 28.1688 21.4795 26.2106C22.5038 23.931 24.7114 22.1585 27.4088 22.1582H35.1103L35.6098 22.1787C38.0784 22.3821 40.0793 24.0733 41.0396 26.2106C41.9177 28.1648 43.252 30.3028 45.4844 32.4408C45.7288 32.6748 45.769 33.0433 45.5803 33.3214L42.0654 38.4907C41.9509 38.659 41.7665 38.7717 41.5602 38.7993C41.3539 38.8268 41.1446 38.7676 40.9873 38.6354C40.2442 38.0109 39.5716 37.3603 39.0232 36.7007V41.7839Z" fill="#00BB93"/>
<path d="M39.1234 41.7693C39.1234 44.5743 40.8467 50.4967 43.1859 51.0511L30.3594 50.997H19.3169C21.76 50.4602 24.0641 44.5769 24.0641 41.7693V41.001H39.0891L39.1234 41.7693Z" fill="#70BEFF"/>
<path d="M39.6647 41.001L39.6957 41.6708L39.7295 42.4281V42.4582C39.7295 43.7391 40.1322 45.807 40.8234 47.6227C41.1676 48.5267 41.5696 49.334 42.0047 49.9343C42.454 50.5541 42.8647 50.852 43.1859 50.9281L43.0111 52.3074L30.3626 52.254H19.4762L19.3169 50.872C19.6827 50.7916 20.1477 50.4767 20.6631 49.8591C21.164 49.2588 21.6441 48.454 22.0628 47.5571C22.9075 45.7476 23.4358 43.7076 23.4358 42.4582V41.001H39.6647ZM24.8792 42.4582C24.8792 43.9762 24.2716 46.2196 23.378 48.1339C22.9276 49.0988 22.3878 50.0171 21.7851 50.7394C21.7524 50.7786 21.7172 50.8157 21.6836 50.8542H30.3683L40.9475 50.898C40.9064 50.8448 40.8641 50.7923 40.8248 50.7381C40.2927 50.0038 39.8377 49.0757 39.4688 48.1066C38.7384 46.188 38.2918 43.9708 38.2861 42.4869V42.4883L38.2819 42.4008H24.8792V42.4582Z" fill="#2099FD"/>
<path d="M25.5986 11.8562C25.5986 8.52592 28.4109 5.82617 31.88 5.82617C35.349 5.82617 38.1613 8.52593 38.1613 11.8562V14.8713C38.1613 18.2016 35.349 20.9014 31.88 20.9014C28.4109 20.9014 25.5986 18.2016 25.5986 14.8713V11.8562Z" fill="#DEFFF0"/>
<path d="M36.7113 14.8713V11.8562C36.7113 9.29473 34.5482 7.21817 31.88 7.21815C29.2117 7.21815 27.0486 9.29472 27.0486 11.8562V14.8713C27.0486 17.4328 29.2117 19.5094 31.88 19.5094V20.9014L31.5571 20.8932C28.345 20.7371 25.7698 18.2648 25.6071 15.1812L25.5986 14.8713V11.8562C25.5986 8.52595 28.4109 5.82617 31.88 5.82617L32.2028 5.83433C35.5218 5.99567 38.1613 8.62992 38.1613 11.8562V14.8713L38.1528 15.1812C37.9847 18.3674 35.2407 20.9013 31.88 20.9014V19.5094C34.5482 19.5094 36.7113 17.4328 36.7113 14.8713Z" fill="#B994FF"/>
<path d="M31.88 5.82617C35.349 5.82619 38.1613 8.52593 38.1613 11.8562V12.4488C38.1613 12.703 38.1421 12.9532 38.1103 13.1992C36.6774 13.4877 35.0184 13.4059 33.4177 12.8825C32.7316 12.658 32.1085 12.3677 31.5585 12.0315C31.0088 12.3675 30.3865 12.6581 29.7008 12.8825C28.3386 13.328 26.9339 13.4525 25.6624 13.3025C25.6212 13.0236 25.5986 12.7387 25.5986 12.4488V11.8562C25.5986 8.52591 28.4109 5.82617 31.88 5.82617Z" fill="#78FABF"/>
<path d="M31.88 5.82617C35.349 5.82619 38.1613 8.52593 38.1613 11.8562V12.4488C38.1613 12.703 38.1421 12.9532 38.1103 13.1992C36.6774 13.4877 35.0184 13.4059 33.4177 12.8825C32.7316 12.658 32.1085 12.3677 31.5585 12.0315C31.0088 12.3675 30.3865 12.6581 29.7008 12.8825C28.3386 13.328 26.9339 13.4525 25.6624 13.3025C25.6212 13.0236 25.5986 12.7387 25.5986 12.4488V11.8562C25.5986 8.52591 28.4109 5.82617 31.88 5.82617ZM27.0486 11.9622C27.7611 11.9311 28.503 11.8042 29.2335 11.5653C29.811 11.3763 30.3284 11.1329 30.7797 10.8571L31.5585 10.3813L32.3373 10.8571C32.7882 11.1327 33.3063 11.376 33.885 11.5653C34.8409 11.8779 35.8127 11.9974 36.7113 11.9622V11.8562C36.7113 9.37492 34.6816 7.34808 32.1292 7.22356L31.88 7.21813C29.2117 7.21813 27.0486 9.29467 27.0486 11.8562V11.9622Z" fill="#B994FF"/>
<path d="M52.3867 47.4792C51.8612 44.783 49.0952 43.1541 46.4824 44.0024L31.8626 48.7488C30.0704 49.3307 29.0488 51.2153 29.5395 53.0346C30.0181 54.8094 31.7762 55.9219 33.585 55.5946L48.7103 52.8572C51.2207 52.4029 52.8747 49.9833 52.3867 47.4792Z" fill="#70BEFF"/>
<path d="M52.3868 47.48C51.8614 44.7839 49.0954 43.1543 46.4828 44.0022L31.8622 48.7497C30.0703 49.3318 29.0496 51.2159 29.5401 53.0351L29.6444 53.3596C30.2385 54.943 31.8892 55.9016 33.5849 55.5948L48.7103 52.8575L48.4577 51.4595L33.3322 54.1968C32.2497 54.3927 31.1974 53.7269 30.9109 52.6647C30.6176 51.5763 31.2286 50.4486 32.3006 50.1002L46.9215 45.354C48.7231 44.7693 50.6303 45.8926 50.9926 47.7517C51.3289 49.4782 50.1885 51.1461 48.4577 51.4595L48.7103 52.8575C51.1423 52.4173 52.7711 50.1329 52.4268 47.7139L52.3868 47.48Z" fill="#1294FF"/>
<path d="M9.58235 47.7528C10.0756 45.2219 12.6362 43.6615 15.1116 44.3833L36.0625 50.4925C37.8038 51.0002 38.8013 52.8259 38.2879 54.5655C37.8131 56.1742 36.2003 57.1646 34.5509 56.8604L13.0895 52.9017C10.6919 52.4595 9.11596 50.1458 9.58235 47.7528Z" fill="#70BEFF"/>
<path d="M9.58275 47.7532C10.0761 45.2225 12.6371 43.6616 15.1124 44.3834L36.0632 50.4932C37.8042 51.0011 38.8015 52.8265 38.2882 54.566C37.8134 56.1746 36.2003 57.1648 34.5509 56.8606L13.0903 52.9027L13.347 51.5056L34.809 55.4637C35.7434 55.636 36.6576 55.0748 36.9265 54.1635C37.2169 53.1783 36.6508 52.1446 35.6646 51.857L14.7138 45.7472C13.0408 45.2598 11.3104 46.3146 10.977 48.0249C10.6618 49.6423 11.7267 51.2064 13.347 51.5056L13.0903 52.9027L12.8678 52.8551C10.5959 52.3151 9.13093 50.0715 9.58275 47.7532Z" fill="#1294FF"/>
<path d="M51.363 19.4842C51.5849 18.8386 52.4151 18.8386 52.637 19.4842L53.6046 22.2992C53.6737 22.5003 53.8179 22.659 54.0007 22.735L56.5598 23.7993C57.1467 24.0434 57.1467 24.9566 56.5598 25.2007L54.0007 26.265C53.8179 26.341 53.6737 26.4997 53.6046 26.7008L52.637 29.5158C52.4151 30.1614 51.5849 30.1614 51.363 29.5158L50.3954 26.7008C50.3263 26.4997 50.1821 26.341 49.9993 26.265L47.4402 25.2007C46.8533 24.9566 46.8533 24.0434 47.4402 23.7993L49.9993 22.735C50.1821 22.659 50.3263 22.5003 50.3954 22.2992L51.363 19.4842Z" fill="#B994FF"/>
<path d="M13.363 10.4842C13.5849 9.83861 14.4151 9.83861 14.637 10.4842L15.6046 13.2992C15.6737 13.5003 15.8179 13.659 16.0007 13.735L18.5598 14.7993C19.1467 15.0434 19.1467 15.9566 18.5598 16.2007L16.0007 17.265C15.8179 17.341 15.6737 17.4997 15.6046 17.7008L14.637 20.5158C14.4151 21.1614 13.5849 21.1614 13.363 20.5158L12.3954 17.7008C12.3263 17.4997 12.1821 17.341 11.9993 17.265L9.44016 16.2007C8.85328 15.9566 8.85328 15.0434 9.44016 14.7993L11.9993 13.735C12.1821 13.659 12.3263 13.5003 12.3954 13.2992L13.363 10.4842Z" fill="#B994FF"/>
</svg>
