<svg width="32" height="32" viewBox="0 0 32 32" fill="none" xmlns="http://www.w3.org/2000/svg">
<path d="M7.99984 28.666C7.62206 28.666 7.30539 28.5382 7.04984 28.2827C6.79428 28.0271 6.6665 27.7105 6.6665 27.3327C6.6665 26.9549 6.79428 26.6382 7.04984 26.3827C7.30539 26.1271 7.62206 25.9993 7.99984 25.9993H23.9998C24.3776 25.9993 24.6943 26.1271 24.9498 26.3827C25.2054 26.6382 25.3332 26.9549 25.3332 27.3327C25.3332 27.7105 25.2054 28.0271 24.9498 28.2827C24.6943 28.5382 24.3776 28.666 23.9998 28.666H7.99984ZM8.93317 23.9993C8.28873 23.9993 7.7165 23.7882 7.2165 23.366C6.7165 22.9438 6.41095 22.4105 6.29984 21.766L4.9665 13.2993C4.92206 13.2993 4.87206 13.3049 4.8165 13.316C4.76095 13.3271 4.71095 13.3327 4.6665 13.3327C4.11095 13.3327 3.63873 13.1382 3.24984 12.7493C2.86095 12.3605 2.6665 11.8882 2.6665 11.3327C2.6665 10.7771 2.86095 10.3049 3.24984 9.91602C3.63873 9.52713 4.11095 9.33268 4.6665 9.33268C5.22206 9.33268 5.69428 9.52713 6.08317 9.91602C6.47206 10.3049 6.6665 10.7771 6.6665 11.3327C6.6665 11.4882 6.64984 11.6327 6.6165 11.766C6.58317 11.8993 6.54428 12.0216 6.49984 12.1327L10.6665 13.9993L14.8332 8.29935C14.5887 8.12157 14.3887 7.88824 14.2332 7.59935C14.0776 7.31046 13.9998 6.99935 13.9998 6.66602C13.9998 6.11046 14.1943 5.63824 14.5832 5.24935C14.9721 4.86046 15.4443 4.66602 15.9998 4.66602C16.5554 4.66602 17.0276 4.86046 17.4165 5.24935C17.8054 5.63824 17.9998 6.11046 17.9998 6.66602C17.9998 6.99935 17.9221 7.31046 17.7665 7.59935C17.6109 7.88824 17.4109 8.12157 17.1665 8.29935L21.3332 13.9993L25.4998 12.1327C25.4554 12.0216 25.4165 11.8993 25.3832 11.766C25.3498 11.6327 25.3332 11.4882 25.3332 11.3327C25.3332 10.7771 25.5276 10.3049 25.9165 9.91602C26.3054 9.52713 26.7776 9.33268 27.3332 9.33268C27.8887 9.33268 28.361 9.52713 28.7498 9.91602C29.1387 10.3049 29.3332 10.7771 29.3332 11.3327C29.3332 11.8882 29.1387 12.3605 28.7498 12.7493C28.361 13.1382 27.8887 13.3327 27.3332 13.3327C27.2887 13.3327 27.2387 13.3271 27.1832 13.316C27.1276 13.3049 27.0776 13.2993 27.0332 13.2993L25.6998 21.766C25.5887 22.4105 25.2832 22.9438 24.7832 23.366C24.2832 23.7882 23.711 23.9993 23.0665 23.9993H8.93317ZM8.93317 21.3327H23.0665L23.9332 15.766L22.3998 16.4327C21.8221 16.6771 21.2332 16.7216 20.6332 16.566C20.0332 16.4105 19.5443 16.0771 19.1665 15.566L15.9998 11.1993L12.8332 15.566C12.4554 16.0771 11.9665 16.4105 11.3665 16.566C10.7665 16.7216 10.1776 16.6771 9.59984 16.4327L8.0665 15.766L8.93317 21.3327Z" fill="url(#paint0_linear_16765_49640)"/>
<defs>
<linearGradient id="paint0_linear_16765_49640" x1="2.6665" y1="16.666" x2="29.3332" y2="16.666" gradientUnits="userSpaceOnUse">
<stop stop-color="#17DA71"/>
<stop offset="1" stop-color="#08DDF0"/>
</linearGradient>
</defs>
</svg>
