<svg width="18" height="18" viewBox="0 0 18 18" fill="none" xmlns="http://www.w3.org/2000/svg">
<path d="M3.75 14.25H4.81875L12.15 6.91875L11.0813 5.85L3.75 13.1813V14.25ZM3 15.75C2.7875 15.75 2.60938 15.6781 2.46563 15.5344C2.32188 15.3906 2.25 15.2125 2.25 15V13.1813C2.25 12.9813 2.2875 12.7906 2.3625 12.6094C2.4375 12.4281 2.54375 12.2688 2.68125 12.1313L12.15 2.68125C12.3 2.54375 12.4656 2.4375 12.6469 2.3625C12.8281 2.2875 13.0188 2.25 13.2188 2.25C13.4188 2.25 13.6125 2.2875 13.8 2.3625C13.9875 2.4375 14.15 2.55 14.2875 2.7L15.3188 3.75C15.4688 3.8875 15.5781 4.05 15.6469 4.2375C15.7156 4.425 15.75 4.6125 15.75 4.8C15.75 5 15.7156 5.19063 15.6469 5.37188C15.5781 5.55313 15.4688 5.71875 15.3188 5.86875L5.86875 15.3188C5.73125 15.4563 5.57188 15.5625 5.39063 15.6375C5.20938 15.7125 5.01875 15.75 4.81875 15.75H3ZM11.6063 6.39375L11.0813 5.85L12.15 6.91875L11.6063 6.39375Z" fill="#737373"/>
</svg>
