<svg width="18" height="18" viewBox="0 0 18 18" fill="none" xmlns="http://www.w3.org/2000/svg">
<path d="M8.25 13.5C8.0375 13.5 7.85938 13.4281 7.71563 13.2844C7.57188 13.1406 7.5 12.9625 7.5 12.75C7.5 12.5375 7.57188 12.3594 7.71563 12.2156C7.85938 12.0719 8.0375 12 8.25 12H9.75C9.9625 12 10.1406 12.0719 10.2844 12.2156C10.4281 12.3594 10.5 12.5375 10.5 12.75C10.5 12.9625 10.4281 13.1406 10.2844 13.2844C10.1406 13.4281 9.9625 13.5 9.75 13.5H8.25ZM5.25 9.75C5.0375 9.75 4.85938 9.67813 4.71563 9.53438C4.57188 9.39062 4.5 9.2125 4.5 9C4.5 8.7875 4.57188 8.60938 4.71563 8.46563C4.85938 8.32188 5.0375 8.25 5.25 8.25H12.75C12.9625 8.25 13.1406 8.32188 13.2844 8.46563C13.4281 8.60938 13.5 8.7875 13.5 9C13.5 9.2125 13.4281 9.39062 13.2844 9.53438C13.1406 9.67813 12.9625 9.75 12.75 9.75H5.25ZM3 6C2.7875 6 2.60938 5.92813 2.46563 5.78438C2.32188 5.64062 2.25 5.4625 2.25 5.25C2.25 5.0375 2.32188 4.85938 2.46563 4.71563C2.60938 4.57188 2.7875 4.5 3 4.5H15C15.2125 4.5 15.3906 4.57188 15.5344 4.71563C15.6781 4.85938 15.75 5.0375 15.75 5.25C15.75 5.4625 15.6781 5.64062 15.5344 5.78438C15.3906 5.92813 15.2125 6 15 6H3Z" fill="#333333"/>
</svg>
