<svg width="48" height="48" viewBox="0 0 48 48" fill="none" xmlns="http://www.w3.org/2000/svg">
<circle cx="24" cy="24" r="23.5" fill="white" stroke="#DDDDDD"/>
<path d="M20.5898 17.5547C21.076 17.0688 21.8645 17.0686 22.3506 17.5547L29.6934 24.8984C29.7319 24.8334 29.7812 24.6996 29.7812 24.4834C29.7812 24.1439 27.7448 20.4095 29.3291 19.7305C30.9133 19.0517 32.0446 24.0305 32.7236 25.2754C33.4026 26.5202 34.8736 28.8962 31.7051 32.4043C28.5364 35.9124 23.8968 34.2152 22.3125 32.6309C21.5818 31.9001 20.8894 31.1837 20.2686 30.5352C20.2633 30.53 20.2572 30.5257 20.252 30.5205L15.6104 25.8789C15.1245 25.3928 15.1243 24.6042 15.6104 24.1182C16.0964 23.6321 16.8849 23.6323 17.3711 24.1182L20.8457 27.5928L21.0176 27.4385L15.8369 22.2578C15.3508 21.7717 15.3508 20.9832 15.8369 20.4971C16.3229 20.0113 17.1106 20.0114 17.5967 20.4971L22.8662 25.7656L23.0381 25.6104L17.4209 19.9941C16.9352 19.5081 16.9353 18.7204 17.4209 18.2344C17.907 17.7482 18.6955 17.7482 19.1816 18.2344L24.8857 23.9385L25.0566 23.7832L20.5898 19.3154C20.1037 18.8293 20.1037 18.0408 20.5898 17.5547Z" fill="url(#paint0_linear_16765_49618)"/>
<path d="M24.397 14.9717C24.8184 14.9556 25.8207 15.1201 26.4583 15.9062C27.096 16.6923 27.2712 17.658 27.279 18.0426" stroke="#75E6B2" stroke-width="1.19251" stroke-linecap="round"/>
<path d="M27.1709 13.2949C27.4316 13.2855 28.0519 13.3896 28.4474 13.8816C28.843 14.3735 28.9528 14.9771 28.9582 15.2173" stroke="#75E6B2" stroke-width="1.19251" stroke-linecap="round"/>
<path d="M19.3379 32.6338C18.9201 32.6915 17.9065 32.6271 17.1941 31.9081C16.4817 31.1891 16.2117 30.2454 16.1658 29.8635" stroke="#75E6B2" stroke-width="1.19251" stroke-linecap="round"/>
<path d="M16.7441 34.5771C16.4857 34.6123 15.8581 34.5702 15.4158 34.1198C14.9734 33.6695 14.8044 33.0798 14.7752 32.8412" stroke="#75E6B2" stroke-width="1.19251" stroke-linecap="round"/>
<defs>
<linearGradient id="paint0_linear_16765_49618" x1="15.2461" y1="25.828" x2="33.6623" y2="25.828" gradientUnits="userSpaceOnUse">
<stop stop-color="#17DA71"/>
<stop offset="1" stop-color="#08DDF0"/>
</linearGradient>
</defs>
</svg>
